<svg width="236" height="64" viewBox="0 0 236 64" fill="none" xmlns="http://www.w3.org/2000/svg">
<g clip-path="url(#clip0_20016_32084)">
<g clip-path="url(#clip1_20016_32084)">
<path d="M0 8C0 3.58172 3.58172 0 8 0H56C60.4183 0 64 3.58172 64 8V56C64 60.4183 60.4183 64 56 64H8C3.58172 64 0 60.4183 0 56V8Z" fill="#EA1B15"/>
<path d="M44.0001 16H47.4371C47.7488 16 48.0001 16.2514 48.0001 16.5632V25.4268C48.0001 25.7386 47.7588 25.99 47.4472 26H44.5631C44.2514 26 44.0001 25.7486 44.0001 25.4369V22.8438L21.7656 44.0001H27.437C27.7487 44.0001 28 44.2515 28 44.5632V47.4369C28 47.7487 27.7487 48.0001 27.437 48.0001H16.563C16.2513 48.0001 16 47.7487 16 47.4369V44.0001L41.2032 20H38.5631C38.2514 20 38.0001 19.7486 38.0001 19.4368V16.5732C38.0001 16.2615 38.2514 16.0101 38.5631 16.0101L44.0001 16ZM24 20L33.4371 19.99C33.7487 19.99 34.0001 19.7385 34.0001 19.4268V16.5632C34.0001 16.2514 33.7487 16 33.4471 16H16.5831C16.2714 16 16.0201 16.2514 16.0201 16.5632V25.4369C16.0201 25.7486 16.2714 26 16.5831 26H19.4471C19.7587 26 20 25.7486 20 25.4369V20H24ZM44.0001 44.0001H32.563C32.2514 44.0001 32 44.2515 32 44.5632V47.4369C32 47.7487 32.2514 48.0001 32.563 48.0001H47.4371C47.7488 48.0001 48.0001 47.7487 48.0001 47.4369V38.5164C48.0001 38.2046 47.7488 37.9532 47.4371 37.9532H44.5631C44.2514 37.9532 44.0001 38.2046 44.0001 38.5164V44.0001Z" fill="white"/>
</g>
<g clip-path="url(#clip2_20016_32084)">
<path d="M80 46.0862V42.4337L93.5442 29.7275H84.0441V32.2323H80.2186V26.248H98.6449V29.9005L85.21 42.5339H95.038V39.9927H98.8635V46.0862H80Z" fill="#000514"/>
<path d="M110.486 46.5413C108.501 46.5413 106.761 46.095 105.249 45.2115C103.746 44.3279 102.562 43.0983 101.697 41.5408C100.841 39.9832 100.403 38.1798 100.403 36.1486C100.403 34.1174 100.822 32.3139 101.669 30.7564C102.516 29.1988 103.691 27.9692 105.203 27.0857C106.715 26.2022 108.446 25.7559 110.404 25.7559C112.363 25.7559 114.093 26.2022 115.605 27.0857C117.108 27.9692 118.292 29.1988 119.139 30.7564C119.986 32.3139 120.405 34.1174 120.405 36.1486C120.405 38.1798 119.986 39.9832 119.139 41.5408C118.292 43.0983 117.126 44.3279 115.633 45.2115C114.139 46.095 112.426 46.5413 110.495 46.5413H110.486ZM110.486 43.0892C111.68 43.0892 112.736 42.7886 113.656 42.1966C114.585 41.6045 115.305 40.7848 115.815 39.7555C116.334 38.7263 116.589 37.5239 116.589 36.1486C116.589 34.7732 116.334 33.5709 115.815 32.5416C115.296 31.5124 114.567 30.6926 113.611 30.1006C112.654 29.5085 111.588 29.208 110.395 29.208C109.202 29.208 108.109 29.5085 107.18 30.1006C106.251 30.6926 105.531 31.5124 104.994 32.5416C104.466 33.5709 104.202 34.7732 104.202 36.1486C104.202 37.5239 104.466 38.7263 104.994 39.7555C105.522 40.7848 106.26 41.6045 107.216 42.1966C108.173 42.7886 109.257 43.0892 110.468 43.0892H110.486Z" fill="#000514"/>
<path d="M132.583 46.5413C130.597 46.5413 128.858 46.095 127.346 45.2115C125.843 44.3279 124.659 43.0983 123.793 41.5408C122.937 39.9832 122.5 38.1798 122.5 36.1486C122.5 34.1174 122.919 32.3139 123.766 30.7564C124.613 29.1988 125.788 27.9692 127.3 27.0857C128.812 26.2022 130.543 25.7559 132.501 25.7559C134.459 25.7559 136.19 26.2022 137.702 27.0857C139.205 27.9692 140.389 29.1988 141.236 30.7564C142.083 32.3139 142.502 34.1174 142.502 36.1486C142.502 38.1798 142.083 39.9832 141.236 41.5408C140.389 43.0983 139.223 44.3279 137.729 45.2115C136.236 46.095 134.523 46.5413 132.592 46.5413H132.583ZM132.583 43.0892C133.776 43.0892 134.833 42.7886 135.753 42.1966C136.682 41.6045 137.401 40.7848 137.911 39.7555C138.431 38.7263 138.686 37.5239 138.686 36.1486C138.686 34.7732 138.431 33.5709 137.911 32.5416C137.392 31.5124 136.664 30.6926 135.707 30.1006C134.751 29.5085 133.685 29.208 132.492 29.208C131.299 29.208 130.206 29.5085 129.277 30.1006C128.348 30.6926 127.628 31.5124 127.091 32.5416C126.562 33.5709 126.298 34.7732 126.298 36.1486C126.298 37.5239 126.562 38.7263 127.091 39.7555C127.619 40.7848 128.357 41.6045 129.313 42.1966C130.269 42.7886 131.353 43.0892 132.565 43.0892H132.583Z" fill="#000514"/>
<path d="M174.053 27.9503C172.687 26.4839 170.82 25.7461 168.443 25.7461C166.83 25.7461 165.446 26.1469 164.298 26.9393C163.169 27.7135 162.304 28.8338 161.702 30.2821C161.365 29.3621 160.919 28.5788 160.336 27.9503C158.97 26.4839 157.103 25.7461 154.725 25.7461C153.113 25.7461 151.729 26.1469 150.581 26.9393C149.789 27.4858 149.142 28.2054 148.604 29.0798L148.422 26.2288H144.888V46.067H148.659V35.7563C148.659 33.6978 149.105 32.0947 150.007 30.9561C150.909 29.8176 152.166 29.2528 153.778 29.2528C154.734 29.2802 155.572 29.4805 156.301 29.8449C157.03 30.2183 157.594 30.8741 158.004 31.8123C158.414 32.7505 158.624 34.1167 158.624 35.9202V46.0761H162.395V35.7654C162.395 33.7069 162.841 32.1038 163.743 30.9652C164.644 29.8267 165.901 29.2619 167.514 29.2619C168.47 29.2893 169.299 29.4897 170.009 29.854C170.72 30.2274 171.294 30.8832 171.712 31.8214C172.131 32.7596 172.35 34.1258 172.35 35.9293V46.0852H176.075V34.7361C176.103 31.6939 175.438 29.4441 174.072 27.9686L174.053 27.9503Z" fill="#000514"/>
<path d="M180.502 23.0415C179.755 23.0415 179.109 22.7591 178.562 22.1944C178.016 21.6297 177.733 20.9739 177.733 20.227C177.733 19.4801 178.007 18.7969 178.562 18.2595C179.109 17.7222 179.755 17.458 180.502 17.458C181.249 17.458 181.932 17.7222 182.47 18.2595C183.007 18.7969 183.271 19.4436 183.271 20.227C183.271 21.0103 183.007 21.6297 182.47 22.1944C181.932 22.7591 181.286 23.0415 180.502 23.0415ZM178.599 46.0676L178.681 26.2294H182.406L182.37 46.0676H178.599Z" fill="#000514"/>
<path d="M200.869 27.9503C199.503 26.4839 197.635 25.7461 195.258 25.7461C193.646 25.7461 192.261 26.1469 191.114 26.9393C190.321 27.4858 189.675 28.2054 189.137 29.0798L188.955 26.2288H185.421V46.067H189.192V35.7563C189.192 33.6978 189.638 32.0947 190.54 30.9561C191.442 29.8176 192.699 29.2528 194.311 29.2528C195.267 29.2802 196.105 29.4805 196.834 29.8449C197.562 30.2183 198.127 30.8741 198.537 31.8123C198.947 32.7505 199.156 34.1167 199.156 35.9202V46.0761H202.927V34.727C202.927 31.6848 202.244 29.435 200.887 27.9594L200.869 27.9503Z" fill="#000514"/>
<path d="M211.362 24.4447C211.362 23.2515 211.571 22.377 211.999 21.8032C212.418 21.2385 213.074 20.947 213.939 20.947C214.231 20.947 214.577 21.0108 214.987 21.1292C215.397 21.2476 215.88 21.4389 216.435 21.703L217.82 18.8065C217.082 18.4604 216.353 18.1872 215.634 17.9959C214.923 17.7955 214.258 17.6953 213.648 17.6953C211.608 17.6953 210.087 18.2327 209.085 19.2984C208.083 20.3732 207.573 21.9489 207.573 24.0348V26.2208H204.039V29.3541H207.573V46.0589H211.344V29.3541H216.818V26.2208H211.344V24.4355L211.362 24.4447Z" fill="#000514"/>
<path d="M226.081 46.5413C224.095 46.5413 222.356 46.095 220.844 45.2115C219.341 44.3279 218.157 43.0983 217.291 41.5408C216.435 39.9832 215.998 38.1798 215.998 36.1486C215.998 34.1174 216.417 32.3139 217.264 30.7564C218.111 29.1988 219.286 27.9692 220.798 27.0857C222.31 26.2022 224.041 25.7559 225.999 25.7559C227.957 25.7559 229.688 26.2022 231.2 27.0857C232.703 27.9692 233.887 29.1988 234.734 30.7564C235.581 32.3139 236 34.1174 236 36.1486C236 38.1798 235.581 39.9832 234.734 41.5408C233.887 43.0983 232.721 44.3279 231.227 45.2115C229.734 46.095 228.021 46.5413 226.09 46.5413H226.081ZM226.081 43.0892C227.274 43.0892 228.331 42.7886 229.251 42.1966C230.18 41.6045 230.899 40.7848 231.41 39.7555C231.929 38.7263 232.184 37.5239 232.184 36.1486C232.184 34.7732 231.929 33.5709 231.41 32.5416C230.89 31.5124 230.162 30.6926 229.205 30.1006C228.249 29.5085 227.183 29.208 225.99 29.208C224.797 29.208 223.704 29.5085 222.775 30.1006C221.846 30.6926 221.126 31.5124 220.589 32.5416C220.06 33.5709 219.796 34.7732 219.796 36.1486C219.796 37.5239 220.06 38.7263 220.589 39.7555C221.117 40.7848 221.855 41.6045 222.811 42.1966C223.768 42.7886 224.851 43.0892 226.063 43.0892H226.081Z" fill="#000514"/>
</g>
</g>
<defs>
<clipPath id="clip0_20016_32084">
<rect width="236" height="64" fill="white"/>
</clipPath>
<clipPath id="clip1_20016_32084">
<rect width="64" height="64" fill="white"/>
</clipPath>
<clipPath id="clip2_20016_32084">
<rect width="156" height="29.0832" fill="white" transform="translate(80 17.458)"/>
</clipPath>
</defs>
</svg>
