<svg width="65" height="65" viewBox="0 0 65 65" fill="none" xmlns="http://www.w3.org/2000/svg">
<g clip-path="url(#clip0_20016_32148)">
<path d="M0.272461 8.27246C0.272461 3.85418 3.85418 0.272461 8.27246 0.272461H56.2725C60.6907 0.272461 64.2725 3.85418 64.2725 8.27246V56.2725C64.2725 60.6907 60.6907 64.2725 56.2725 64.2725H8.27246C3.85418 64.2725 0.272461 60.6907 0.272461 56.2725V8.27246Z" fill="#EA1B15"/>
<path d="M44.2725 16.2725H47.7096C48.0212 16.2725 48.2726 16.5239 48.2726 16.8356V25.6993C48.2726 26.011 48.0313 26.2624 47.7196 26.2725H44.8355C44.5239 26.2725 44.2725 26.0211 44.2725 25.7093V23.1162L22.0381 44.2725H27.7095C28.0212 44.2725 28.2725 44.524 28.2725 44.8357V47.7094C28.2725 48.0211 28.0212 48.2726 27.7095 48.2726H16.8355C16.5238 48.2726 16.2725 48.0211 16.2725 47.7094V44.2725L41.4757 20.2725H38.8355C38.5239 20.2725 38.2725 20.0211 38.2725 19.7093V16.8457C38.2725 16.5339 38.5239 16.2825 38.8355 16.2825L44.2725 16.2725ZM24.2725 20.2725L33.7095 20.2624C34.0212 20.2624 34.2725 20.011 34.2725 19.6992V16.8356C34.2725 16.5239 34.0212 16.2725 33.7196 16.2725H16.8556C16.5439 16.2725 16.2926 16.5239 16.2926 16.8356V25.7093C16.2926 26.0211 16.5439 26.2725 16.8556 26.2725H19.7195C20.0312 26.2725 20.2725 26.0211 20.2725 25.7093V20.2725H24.2725ZM44.2725 44.2725H32.8355C32.5238 44.2725 32.2725 44.524 32.2725 44.8357V47.7094C32.2725 48.0211 32.5238 48.2726 32.8355 48.2726H47.7096C48.0212 48.2726 48.2726 48.0211 48.2726 47.7094V38.7888C48.2726 38.4771 48.0212 38.2257 47.7096 38.2257H44.8355C44.5239 38.2257 44.2725 38.4771 44.2725 38.7888V44.2725Z" fill="white"/>
</g>
<defs>
<clipPath id="clip0_20016_32148">
<rect width="64" height="64" fill="white" transform="translate(0.272461 0.272461)"/>
</clipPath>
</defs>
</svg>
