<svg width="190" height="190" viewBox="-36 -27 190 190" fill="none" xmlns="http://www.w3.org/2000/svg">
<rect x="-36" y="-27" width="190" height="190" fill="white"/>
<path d="M73.7092 106.8C52.0092 107 44.0092 77.7 62.7092 66.8C71.1092 62 99.5092 45.5 108.309 40.5C116.509 63.7 106.309 91.3 85.0092 103.6C81.8092 105.6 77.6092 106.8 73.7092 106.8Z" fill="#F34F77"/>
<path d="M73.6089 51.3C70.1089 51.3 66.6089 50.4 63.5089 48.8L62.7089 48.3L17.4089 22.2C25.8089 12.6 37.3089 6.4 49.8089 4.6C52.4089 4.2 55.0089 4 57.6089 4C66.7089 4 75.7089 6.3 83.5089 10.7C83.7089 10.8 85.3089 11.8 85.6089 11.9C94.9089 18.2 97.8089 30.7 92.2089 40.5C88.4089 47.2 81.3089 51.3 73.6089 51.3Z" fill="#FFC368"/>
<path d="M47.109 132C18.509 118.4 0.708993 86.1 4.50899 54.6C4.80899 51.5 5.70899 48.8 7.20899 46.4C14.009 34.4 32.009 32.5 41.109 42.9C44.909 47 47.109 52.4 47.109 58.1V132Z" fill="#0355F3"/>
</svg>
