<?xml version="1.0" encoding="UTF-8"?>
<svg width="288px" height="288px" viewBox="0 0 288 288" version="1.1" xmlns="http://www.w3.org/2000/svg" xmlns:xlink="http://www.w3.org/1999/xlink">
    <title>Artboard</title>
    <g id="Artboard" stroke="none" stroke-width="1" fill="none" fill-rule="evenodd">
        <g id="Group">
            <rect id="Rectangle" fill="#0061D5" x="0" y="0" width="288" height="288" rx="8"></rect>
            <path d="M237.650101,173.734258 C239.923205,176.870508 239.264784,181.244643 236.132744,183.575192 C233.001876,185.904579 228.578206,185.312647 226.172597,182.275731 L226.170252,182.276893 L210.307187,161.268262 L194.445295,182.276893 L194.442364,182.273988 C192.035582,185.312066 187.612499,185.903998 184.481044,183.573449 C181.34959,181.2429 180.690583,176.869346 182.965446,173.733677 L182.961928,173.731935 L201.340241,149.391293 L182.961928,125.050652 L182.965446,125.04891 C180.690583,121.913822 181.34959,117.539686 184.481044,115.209138 C187.612499,112.878589 192.035582,113.47052 194.442364,116.508599 L194.445295,116.505694 L210.307187,137.514325 L226.170252,116.505694 L226.172597,116.506856 C228.578206,113.46994 233.001876,112.878008 236.132744,115.207976 C239.264784,117.538525 239.923205,121.91266 237.650101,125.048329 L237.653619,125.050652 L219.27472,149.391293 L237.653619,173.731935 L237.650101,173.734258 L237.650101,173.734258 Z M149.291315,170.692114 C137.402811,170.692114 127.766304,161.14337 127.766304,149.365153 C127.766304,137.585775 137.402811,128.037612 149.291315,128.037612 C161.179232,128.037612 170.817498,137.585775 170.817498,149.365153 C170.817498,161.14337 161.179232,170.692114 149.291315,170.692114 L149.291315,170.692114 Z M85.8871343,170.692114 C73.9986306,170.692114 64.3615376,161.14337 64.3615376,149.365153 C64.3615376,137.585775 73.9986306,128.037612 85.8871343,128.037612 C97.7756379,128.037612 107.412731,137.585775 107.412731,149.365153 C107.412731,161.14337 97.7756379,170.692114 85.8871343,170.692114 L85.8871343,170.692114 Z M149.291315,113.808601 C135.550674,113.808601 123.618784,121.463048 117.589224,132.700452 C111.559665,121.463048 99.627775,113.808601 85.8871343,113.808601 C77.8107848,113.808601 70.3582637,116.453414 64.3615376,120.914683 L64.3615376,90.9655059 L64.3580198,90.9655059 C64.2747645,87.105462 61.0964058,84 57.1804756,84 C53.2639592,84 50.0861868,87.105462 50.0035178,90.9655059 L50,90.9655059 L50,149.95418 L50.0146576,149.95418 C50.3336075,169.317717 66.2664421,184.921124 85.8871343,184.921124 C99.627775,184.921124 111.559665,177.265516 117.589224,166.028112 C123.618784,177.265516 135.550674,184.921124 149.291315,184.921124 C169.11135,184.921124 185.178449,169.001711 185.178449,149.365153 C185.178449,129.728015 169.11135,113.808601 149.291315,113.808601 L149.291315,113.808601 Z" id="Box" fill="#FFFFFF"></path>
        </g>
    </g>
</svg>