<svg width="32" height="32" viewBox="0 4 34.6925 34.63" fill="none" xmlns="http://www.w3.org/2000/svg">
  <path d="M34.3175 36.5672L18.4402 4.81262C18.1276 4.12502 17.8151 4 17.44 4C17.1275 4 16.7524 4.12502 16.3774 4.75011C14.127 8.31312 13.1269 12.4387 13.1269 16.7518C13.1269 22.7527 16.1898 28.3785 20.6905 37.4423C21.1906 38.4425 21.5656 38.63 22.4407 38.63H33.4423C34.2549 38.63 34.6925 38.3175 34.6925 37.6924C34.6925 37.3798 34.63 37.1923 34.3175 36.5672ZM11.2516 21.565C10.0014 19.6898 9.62639 19.5647 9.31384 19.5647C9.0013 19.5647 8.81377 19.6898 8.25119 20.8149L0.312545 36.6922C0.062509 37.1923 0 37.3798 0 37.6299C0 38.1299 0.437563 38.63 1.3752 38.63H12.5643C13.3144 38.63 13.877 38.0049 14.1895 36.8172C14.5646 35.317 14.6896 34.0043 14.6896 32.4416C14.6896 28.066 12.7518 23.8154 11.2516 21.565Z" fill="#1868DB"/>
</svg>
