<svg width="214" height="206" viewBox="0 0 214 206" fill="none" xmlns="http://www.w3.org/2000/svg">
<rect width="214" height="206" fill="white"/>
<path d="M96.5839 118.655L90.1172 120.46C90.709 122.098 91.1387 125.037 91.1387 128.937V148.252H98.3638V127.806C99.7099 126.167 101.165 125.376 102.783 125.376C103.59 125.376 104.182 125.546 104.887 125.941L106.878 119.277C105.747 118.768 105.26 118.655 104.182 118.655C103.375 118.655 102.406 118.825 101.81 119.107C100.464 119.785 98.7407 121.307 97.7149 122.777C97.6096 121.138 97.2285 119.842 96.5837 118.655H96.5839ZM71.4993 109.109H70.7128V148.252H78.262V130.91H87.7981V124.472H78.262V115.49H90.1699L90.6319 112.071C83.472 111.527 76.9689 110.38 71.4993 109.109V109.109ZM53.8181 153.447L57.3212 157.516C60.7147 156.16 64.9718 153.108 66.0542 148.308C66.4312 146.73 66.5895 145.709 66.5895 140.627V109.198H58.9387V141.475C58.9387 145.709 58.7766 147.291 58.1845 148.704C57.4833 150.287 55.7562 152.208 53.8181 153.447ZM122.556 133.623C122.556 140.457 121.21 143.392 118.084 143.392C116.682 143.392 115.064 142.605 114.419 141.023C113.827 139.553 113.503 137.067 113.503 133.736C113.503 130.854 113.771 128.824 114.257 127.298C114.849 125.49 116.252 124.359 117.975 124.359C119.268 124.359 120.399 124.924 121.101 125.885C122.07 127.185 122.556 129.728 122.556 133.624V133.623ZM126.976 144.865C129.347 142.04 130.426 138.649 130.426 133.68C130.426 128.989 129.453 125.829 127.243 123.116C124.876 120.181 121.802 118.769 117.865 118.769C110.43 118.769 105.471 124.811 105.471 133.906C105.471 143 110.373 148.874 117.865 148.874C122.127 148.874 124.876 147.348 126.976 144.865ZM147.673 128.65C147.673 131.306 146.108 132.776 143.254 132.776C140.72 132.776 138.993 131.589 138.993 128.65C138.993 125.942 140.558 124.359 143.307 124.359C146.056 124.359 147.673 125.942 147.673 128.65H147.673ZM160.445 122.495L157.428 117.695C155.758 119.277 153.706 120.182 151.715 120.182C150.799 120.182 150.312 120.064 148.318 119.56C146.323 118.995 144.924 118.825 143.359 118.825C136.296 118.825 131.719 122.664 131.719 128.598C131.719 132.889 133.657 135.545 137.647 136.619C136.029 137.014 134.249 137.858 133.442 138.819C132.85 139.497 132.579 140.401 132.579 141.475C132.579 142.379 132.793 143.17 133.118 143.848C133.495 144.47 134.034 144.978 134.683 145.257C135.976 145.77 138.081 146.109 141.312 146.161C142.982 146.161 144.008 146.218 144.385 146.218C146.38 146.331 147.402 146.67 148.156 147.069C148.91 147.517 149.449 148.535 149.449 149.665C149.449 150.795 148.752 151.926 147.726 152.604C146.757 153.278 145.192 153.56 143.144 153.56C139.799 153.56 137.971 152.321 137.971 150.004C137.971 148.987 138.081 148.761 138.291 148.139H131.61C131.342 148.704 130.961 149.495 130.961 151.078C130.961 153.056 131.719 154.747 133.227 156.216C135.704 158.646 139.751 159.325 143.683 159.325C147.993 159.325 152.145 158.307 154.569 155.595C156.078 153.899 156.779 152.038 156.779 149.608C156.779 147.009 156.025 145.031 154.408 143.452C152.469 141.588 150.26 140.909 146.055 140.853L142.171 140.796C141.417 140.796 140.987 140.514 140.987 140.118C140.987 139.327 142.013 138.649 143.846 137.749C144.385 137.805 144.6 137.805 144.924 137.805C150.799 137.805 155.109 134.188 155.109 129.215C155.109 127.298 154.569 125.829 153.491 124.472C154.408 124.585 154.679 124.642 155.376 124.642C157.371 124.642 158.879 124.02 160.444 122.494L160.445 122.495ZM69.5936 75.1124C60.5605 77.3124 54.4222 81.6157 54.4222 86.5684C54.4222 89.6321 56.7777 92.4458 60.7066 94.6659C59.5267 92.785 58.8818 90.807 58.8818 88.7644C58.8818 83.6136 62.8876 78.8788 69.5936 75.1124ZM164.888 94.4599C164.888 91.2144 162.877 88.2031 159.459 85.7328C159.768 86.7217 159.942 87.7349 159.942 88.7642C159.942 98.0646 146.895 106.021 128.403 109.319C130.491 109.553 132.664 109.682 134.894 109.682C151.46 109.682 164.888 102.868 164.888 94.4599ZM154.229 89.402C154.229 85.9913 151.294 82.8303 146.295 80.2228C147.466 81.6355 148.103 83.1414 148.103 84.7034C148.103 92.9462 130.463 99.6308 108.702 99.6308C86.9466 99.6308 69.306 92.9464 69.306 84.7034C69.306 83.6538 69.5938 82.6326 70.1331 81.6477C66.6383 83.9486 64.6436 86.5925 64.6436 89.402C64.6436 98.327 84.6965 105.565 109.437 105.565C134.177 105.565 154.23 98.327 154.23 89.402H154.229ZM134.663 89.0025C125.536 94.8757 97.4189 97.092 85.3083 89.5595C75.8172 83.6538 79.0728 74.2929 51.9245 53.6658C48.3769 50.9692 52.5813 48.1075 55.2411 49.9399C57.8966 51.7726 55.4639 52.2609 60.8279 57.6054C71.6572 68.3954 71.5518 58.6954 73.2628 62.3645C76.8591 70.0784 84.7936 77.849 84.7936 77.849C92.7442 82.9999 99.0894 84.122 110.811 76.2265C118.246 71.217 115.206 84.1908 133.438 74.8418C140.087 71.431 139.812 73.6913 146.57 64.3143C149.376 60.4189 154.74 67.3055 148.658 68.2622C146.226 68.6456 142.119 71.2936 140.355 75.4797C137.865 81.6678 138.944 86.2491 134.663 89.0023V89.0025ZM83.9867 73.1385C81.7324 72.1496 79.3728 68.3267 78.4524 66.7929C80.9743 64.3346 79.9526 60.2214 78.5293 57.9607C77.1063 55.7042 75.3792 56.346 73.4856 54.2712C71.5922 52.1966 74.1991 46.7876 76.628 50.9451C85.7179 66.5182 91.6859 60.0395 99.1137 59.1111C106.241 58.2191 112.542 62.086 114.476 51.1386C114.792 49.3464 116.539 48.9187 116.718 51.8815C116.9 54.8403 118.015 62.0496 121.932 62.9822C125.852 63.9106 128.962 62.0661 129.882 61.0447C130.799 60.0234 131.277 60.1687 131.683 62.7077C132.084 65.2506 133.077 68.7584 138.579 64.8511C149.834 56.8547 146.611 53.7626 150.986 51.7079C153.479 50.5372 157.404 54.3436 151.728 57.2015C143.611 61.2868 142.751 66.3606 137.622 69.5819C129.003 75.0031 131.638 69.7999 117.768 67.8342C112.429 67.0752 110.709 73.0051 106.541 71.2936C96.9245 67.3377 90.2145 68.0966 83.9869 73.1383L83.9867 73.1385ZM114.046 44.2727C114.362 46.6098 114.756 46.5533 115.599 46.7713C116.438 46.9853 117.504 45.6693 117.541 44.3937C117.577 43.1141 116.993 42.3107 115.724 42.3551C114.459 42.4035 114.005 43.0375 114.046 44.2727ZM155.843 48.5272C156.852 49.5081 159.548 48.8462 160.177 48.1438C161.79 46.3435 161.848 45.2576 161.016 44.0507C160.181 42.8478 158.421 43.0658 156.678 44.325C154.939 45.5805 155.267 47.9702 155.843 48.5272ZM155.085 60.4191C154.217 61.5657 154.193 62.377 154.809 63.0106C155.466 63.6847 156.828 64.2701 157.809 63.491C158.786 62.7198 158.786 61.5937 157.955 60.6006C157.12 59.6077 155.984 59.6077 155.084 60.4189L155.085 60.4191ZM69.411 46.3596C70.7326 46.7633 71.3126 47.9865 72.4272 46.5897C72.9786 45.8996 73.0313 44.9873 72.3018 43.9578C71.8395 43.3162 69.6948 42.8721 68.7825 43.7882C67.8704 44.7046 68.7015 46.1417 69.411 46.3596ZM42.9074 45.5727C45.2751 47.0175 46.828 49.2055 48.612 47.2518C49.2121 46.6019 49.9621 45.3707 48.6686 43.0135C47.7238 41.2898 44.6101 40.5834 43.5115 41.2454C42.4127 41.9033 41.0708 44.4504 42.9074 45.5728V45.5727ZM64.7889 56.754C65.543 57.533 66.8241 57.4685 67.5906 57.0487C68.3528 56.6209 68.1945 55.4423 67.4608 54.4129C67.0027 53.771 65.6364 53.4724 64.724 54.3886C63.8117 55.3049 64.2618 56.2092 64.7889 56.754Z" fill="#40BE46"/>
</svg>
