<svg width="90" height="40" viewBox="0 0 90 40" fill="none" xmlns="http://www.w3.org/2000/svg">
<g clip-path="url(#clip0_3120_3604)">
<path d="M14.5295 16.3142C14.593 16.5028 14.7259 16.6568 14.903 16.7454C15.0088 16.7973 15.1224 16.8243 15.236 16.8243C15.3149 16.8243 15.3958 16.8108 15.4728 16.7858L18.9783 15.6173C19.3691 15.4883 19.5789 15.0648 19.4499 14.6741C19.3209 14.2833 18.8955 14.0734 18.5066 14.2024L15.0011 15.3709C14.6123 15.4999 14.4005 15.9234 14.5295 16.3142Z" fill="white"/>
<path d="M15.4128 24.2335C15.5014 24.0546 15.5168 23.8543 15.4532 23.6637C15.3243 23.2749 14.9008 23.0631 14.51 23.1921L11.0045 24.3606C10.8158 24.4242 10.6618 24.5569 10.5733 24.7341C10.4847 24.9112 10.4693 25.1133 10.5329 25.3038C10.6368 25.6157 10.9275 25.814 11.2394 25.814C11.3183 25.814 11.3972 25.8025 11.4742 25.7756L14.9797 24.607C15.1683 24.5435 15.3223 24.4107 15.4109 24.2335H15.4128Z" fill="white"/>
<path d="M12.0651 17.7176C12.171 17.7715 12.2846 17.7965 12.3962 17.7965C12.6696 17.7965 12.9333 17.6464 13.0642 17.3846L14.7159 14.0793C14.8044 13.9022 14.8198 13.7001 14.7563 13.5095C14.6928 13.3208 14.56 13.1668 14.3829 13.0783C14.0152 12.8954 13.5667 13.0436 13.3838 13.4113L11.7321 16.7166C11.5492 17.0843 11.6975 17.5328 12.0651 17.7157V17.7176Z" fill="white"/>
<path d="M17.9155 22.2603C17.7383 22.1718 17.5343 22.1564 17.3456 22.2199C17.157 22.2834 17.003 22.4162 16.9144 22.5933L15.2628 25.8986C15.1742 26.0757 15.1588 26.2778 15.2223 26.4684C15.2859 26.659 15.4187 26.8111 15.5958 26.8996C15.7017 26.9516 15.8133 26.9785 15.9288 26.9785C16.0077 26.9785 16.0886 26.965 16.1656 26.94C16.3542 26.8765 16.5082 26.7437 16.5968 26.5665L18.2485 23.2613C18.337 23.0842 18.3524 22.8821 18.2889 22.6915C18.2254 22.5029 18.0925 22.3489 17.9155 22.2603Z" fill="white"/>
<path d="M10.3733 19.9796C10.4772 20.2915 10.7679 20.4898 11.0817 20.4898C11.1587 20.4898 11.2395 20.4782 11.3166 20.4513C11.7054 20.3223 11.9172 19.8988 11.7882 19.508L10.6197 16.0026C10.4907 15.6137 10.0672 15.4 9.67643 15.5309C9.28757 15.6599 9.07582 16.0834 9.2048 16.4742L10.3733 19.9796Z" fill="white"/>
<path d="M19.6075 19.9987C19.4785 19.6079 19.0549 19.3981 18.6641 19.5271C18.4755 19.5906 18.3215 19.7234 18.233 19.9005C18.1444 20.0776 18.129 20.2797 18.1926 20.4703L19.361 23.9758C19.465 24.2877 19.7557 24.486 20.0675 24.486C20.1465 24.486 20.2254 24.4744 20.3024 24.4474C20.6912 24.3184 20.903 23.8949 20.774 23.5042L19.6055 19.9987H19.6075Z" fill="white"/>
<path d="M12.052 23.3272C12.1309 23.3272 12.2117 23.3137 12.2887 23.2886C12.4774 23.2251 12.6314 23.0923 12.72 22.9152C12.8085 22.7381 12.8239 22.5359 12.7604 22.3454C12.6969 22.1567 12.564 22.0027 12.3869 21.9142L9.08166 20.2625C8.71398 20.0796 8.26545 20.2278 8.08258 20.5955C7.99403 20.7745 7.97863 20.9747 8.04215 21.1653C8.10568 21.354 8.2385 21.508 8.41561 21.5965L11.7209 23.2482C11.8267 23.3002 11.9403 23.3272 12.0539 23.3272H12.052Z" fill="white"/>
<path d="M21.9405 18.8151C21.8771 18.6265 21.7443 18.4725 21.5671 18.3839L18.2618 16.7323C17.8942 16.5494 17.4456 16.6976 17.2627 17.0653C17.1742 17.2443 17.1588 17.4445 17.2223 17.6351C17.2858 17.8238 17.4187 17.9778 17.5958 18.0663L20.901 19.718C21.007 19.7719 21.1205 19.7969 21.2321 19.7969C21.5055 19.7969 21.7693 19.6468 21.9001 19.385C21.9887 19.2079 22.0041 19.0057 21.9405 18.8151Z" fill="white"/>
<path d="M31.9852 25.7413H28.5029L28.3374 25.5757V14.297L28.5029 14.1315H31.9852C36.1317 14.1315 37.4601 16.4531 37.4601 19.9373C37.4601 23.4216 36.1336 25.7432 31.9852 25.7432V25.7413ZM31.8197 15.6234H30.1603L29.9948 15.7889V24.082L30.1603 24.2475H31.8197C34.9711 24.2475 35.8006 22.7556 35.8006 19.9354C35.8006 17.1152 34.9711 15.6234 31.8197 15.6234Z" fill="white"/>
<path d="M42.602 17.2824C45.0891 17.2824 46.5829 18.9418 46.5829 21.5945C46.5829 24.2472 45.0891 25.9065 42.602 25.9065C40.1147 25.9065 38.6211 24.2472 38.6211 21.5945C38.6211 18.9418 40.113 17.2824 42.602 17.2824ZM42.602 24.4146C44.0939 24.4146 44.9234 23.4194 44.9234 21.5945C44.9234 19.7696 44.0939 18.7743 42.602 18.7743C41.1101 18.7743 40.2803 19.7696 40.2803 21.5945C40.2803 23.4194 41.1101 24.4146 42.602 24.4146Z" fill="white"/>
<path d="M59.5211 25.741H58.1946L58.0292 25.5754V20.5992C58.0292 19.604 57.8635 18.7743 56.5373 18.7743C55.3764 18.7743 54.7124 19.604 54.7124 20.9303V25.5754L54.5469 25.741H53.2204L53.055 25.5754V20.5992C53.055 19.604 52.8893 18.7743 51.5631 18.7743C50.7333 18.7743 49.7382 19.271 49.7382 20.9303V25.5754L49.5725 25.741H48.2462L48.0806 25.5754V17.6135L48.2462 17.448H49.4071L49.5725 17.6135L49.7382 18.2776H49.9036C50.2347 17.781 50.8988 17.2824 52.0596 17.2824C53.3861 17.2824 53.8847 17.9465 54.2158 18.4432H54.3813C54.878 17.7791 55.7075 17.2824 56.8684 17.2824C59.19 17.2824 59.6887 18.7762 59.6887 20.5992V25.5754L59.523 25.741H59.5211Z" fill="white"/>
<path d="M63.0032 16.122H61.6769L61.5112 15.9564V14.6301L61.6769 14.4645H63.0032L63.1688 14.6301V15.9564L63.0032 16.122ZM63.0032 25.7432H61.6769L61.5112 25.5777V17.6139L61.6769 17.4483H63.0032L63.1688 17.6139V25.5758L63.0032 25.7413V25.7432Z" fill="white"/>
<path d="M72.1259 25.741H70.7994L70.634 25.5754V20.7648C70.634 19.9197 70.4683 18.7743 68.9747 18.7743C67.4807 18.7743 66.8185 19.5867 66.8185 21.5945V25.5754L66.6531 25.741H65.3266L65.1611 25.5754V17.6135L65.3266 17.448H66.4874L66.6531 17.6135L66.8185 18.2776H66.9842C67.4653 17.6482 68.2603 17.2824 69.1402 17.2824C71.4616 17.2824 72.2913 18.7762 72.2913 20.7667V25.5774L72.1259 25.7429V25.741Z" fill="white"/>
<path d="M77.601 17.2824C80.0881 17.2824 81.5819 18.9418 81.5819 21.5945C81.5819 24.2472 80.0881 25.9065 77.601 25.9065C75.1139 25.9065 73.6201 24.2472 73.6201 21.5945C73.6201 18.9418 75.112 17.2824 77.601 17.2824ZM77.601 24.4146C79.0929 24.4146 79.9224 23.4194 79.9224 21.5945C79.9224 19.7696 79.0929 18.7743 77.601 18.7743C76.1091 18.7743 75.2793 19.7696 75.2793 21.5945C75.2793 23.4194 76.1091 24.4146 77.601 24.4146Z" fill="white"/>
</g>
<defs>
<clipPath id="clip0_3120_3604">
<rect width="74" height="14" fill="white" transform="translate(8 13)"/>
</clipPath>
</defs>
</svg>
