<svg width="123" height="12" viewBox="0 0 123 12" fill="none" xmlns="http://www.w3.org/2000/svg">
<path d="M3.38683 10.2765C3.38683 9.32481 2.62837 8.55273 1.69341 8.55273C0.758457 8.55273 0 9.32481 0 10.2765C0 11.2283 0.758457 12.0003 1.69341 12.0003C2.62837 12.0003 3.38683 11.2283 3.38683 10.2765Z" fill="#00F078"/>
<path d="M16.7656 5.74197C16.7656 5.74197 17.0137 6.2664 17.2808 6.62817L20.9443 11.7341H23.8803V0H20.5007V6.08433C20.5007 6.08433 20.2526 5.5599 19.9855 5.19814L16.322 0.00243028H13.3859V11.7365H16.7656V5.74197Z" fill="#000503"/>
<path d="M4.25468 7.22534H8.02314V4.34828H4.25468V2.91824H10.0338V0.00234375H0.875V7.22776H4.25468V7.22534Z" fill="#000503"/>
<path d="M116.573 4.88858C117.31 5.11659 118.091 5.25598 119.008 5.40799L119.012 5.40483C121.298 5.77216 122.515 6.43081 122.515 8.40375C122.515 9.38227 122.182 10.4083 120.965 10.9752C120.138 11.3742 119.04 11.4502 118.047 11.4502C116.862 11.4502 115.658 11.3901 114.305 11.2982V10.1518C115.658 10.2753 116.968 10.3513 118.019 10.3513C118.906 10.3513 119.628 10.2912 120.2 10.1233C121.133 9.84783 121.357 9.22079 121.357 8.50191C121.357 7.70703 121.087 7.1877 120.184 6.89637C119.452 6.68449 118.846 6.5754 118.039 6.42998C117.917 6.40804 117.79 6.38527 117.658 6.36119C115.446 5.97795 114.289 5.36361 114.289 3.48258C114.289 2.53254 114.603 1.53811 115.776 1.00293C116.588 0.619753 117.702 0.54375 118.573 0.54375C119.609 0.54375 120.676 0.603908 121.864 0.695757V1.79781C120.663 1.67434 119.503 1.59834 118.557 1.59834C117.804 1.59834 117.114 1.66165 116.573 1.81366C115.658 2.10498 115.431 2.65601 115.431 3.3432C115.431 4.12224 115.686 4.6131 116.573 4.88858Z" fill="#000503"/>
<path d="M73.6625 0.556641H74.9132V10.2914H81.9128V11.4536H73.6625V0.556641Z" fill="#000503"/>
<path fill-rule="evenodd" clip-rule="evenodd" d="M84.6594 11.4504L90.2062 0.556641H91.5315L97.0939 11.4504H95.6878L94.0949 8.31848H87.5961L86.0033 11.4504H84.6594ZM90.8004 1.92155L88.1126 7.25121H93.5661L90.8626 1.92155H90.8004Z" fill="#000503"/>
<path fill-rule="evenodd" clip-rule="evenodd" d="M108.125 5.91718V5.85386C109.375 5.439 109.876 4.56496 109.876 3.39012C109.876 2.50023 109.596 1.75289 108.847 1.24302C107.848 0.606453 106.52 0.558985 104.41 0.558985H100.646V11.4528H104.942C107.114 11.4528 108.567 11.4053 109.553 10.5787C110.116 10.1164 110.458 9.46404 110.458 8.52661C110.458 6.90522 109.522 6.18957 108.131 5.91718H108.125ZM101.891 1.62304H104.843C107.108 1.62304 108.623 1.78135 108.623 3.53259C108.623 5.12229 107.434 5.50554 104.843 5.50554H101.891V1.62304ZM105.421 10.3856H101.891V6.55374H105.421C107.593 6.55374 109.186 6.69621 109.186 8.4633C109.186 10.0688 108.06 10.3887 105.421 10.3887V10.3856Z" fill="#000503"/>
<path d="M4.26172 8.82305H10.0336V11.739H4.26172V8.82305Z" fill="#000503"/>
<path fill-rule="evenodd" clip-rule="evenodd" d="M40.6555 5.839C40.6555 2.60505 43.0406 0.00234375 46.6111 0.00234375C50.1792 0.00234375 52.5833 2.57106 52.5833 5.839C52.5833 9.10696 50.1816 11.7097 46.6111 11.7097C43.0406 11.7097 40.6555 9.07299 40.6555 5.839ZM44.0542 5.839C44.0542 7.51669 45.118 8.70391 46.6111 8.70391C48.1208 8.70391 49.1846 7.48271 49.1846 5.839C49.1846 4.19533 48.1208 3.00807 46.6111 3.00807C45.2039 3.00807 44.0542 4.16134 44.0542 5.839Z" fill="#000503"/>
<path d="M63.5884 8.24022C64.798 7.39047 65.4038 5.99441 65.4038 4.6372C65.4038 2.08305 63.5884 0.00234375 60.0491 0.00234375H54.9615V2.92796H58.3415V2.91583H60.1017C61.1151 2.91583 61.8261 3.67575 61.8261 4.63477C61.8261 5.59378 61.1319 6.35371 60.0827 6.35371H59.7393V6.36344H54.9594V11.7291H58.3388V9.26721H59.7272C60.0112 9.26721 60.2063 9.25022 60.5618 9.21378L61.8787 11.7315H65.7378L63.5863 8.23781L63.5884 8.24022Z" fill="#000503"/>
<path d="M27.2164 0.00234375H32.02V0.00718949C35.8815 0.00718949 38.2999 2.66818 38.2999 5.87303C38.2999 9.07783 35.879 11.7388 32.02 11.7388H27.2164V8.82293H31.8935C33.6204 8.82293 34.7223 7.55555 34.7223 5.87056C34.7223 4.18562 33.618 2.91825 31.8935 2.91825H30.5961V7.25205H27.2164V0.00234375Z" fill="#000503"/>
</svg>
