<?xml version="1.0" encoding="UTF-8"?>
<svg id="VillageSQL_Pelican" xmlns="http://www.w3.org/2000/svg" version="1.1" viewBox="0 0 411.89 333.25">
  <!-- Generator: Adobe Illustrator 29.4.0, SVG Export Plug-In . SVG Version: 2.1.0 Build 152)  -->
  <defs>
    <style>
      .st0 {
        fill: #9500bf;
      }
    </style>
  </defs>
  <path class="st0" d="M350.24,170.39l-118.52-45.32-1.52.33-24.56,24.62.81,2.43,15.99,2.31,3.53,27.24-29.15-18-24.58-61.56-.83-.81L63.5,61.21l-1.84,1.84,17.31,45.88.83.83,19.44,7.32-14.28,3.11-1.02,1.94,15.04,36.5.71.75,44.21,20.84,20.58,18.93-49.5,70.63,1.37,2.24,91.7-12.5.87-.46,33.43-37.26,15.33-19.12.24-1.34-12.23-37.48,13.97,18.71,1.31.57,88.91-10,.35-2.76ZM172.03,199.12l54.84-12.65,12.04,32.27-66.87-19.61ZM167.99,107.06l-24.1,69.99-40.86-19.26,64.96-50.73ZM218.1,185.55l-51.3,11.84-18.1-16.65,69.4,4.81ZM231.56,128.07l105.64,40.39-127.53-18.45,21.89-21.94ZM239.48,157.22l-10.91,22.62-3.2-24.66,14.11,2.04ZM153.17,178.18l42.27-11.68,26.65,16.46-68.92-4.78ZM146.96,176.93l24.05-69.86,22.73,56.94-46.78,12.92ZM65.45,65l100.41,37.6-61.46,13.38-22.97-8.65-15.97-42.33ZM87.25,122.63l77.84-16.94-64.17,50.12-13.67-33.18ZM166.97,200.62l69.89,20.5-116.78,46.41,46.89-66.9ZM207.15,256.77l-79.56,10.85,108.51-43.12-28.96,32.27ZM241.7,218.05l-11.18-29.97,23.9,14.11-12.72,15.87ZM229.63,184.23l11.75-24.36,12.65,38.77-24.41-14.4ZM244.89,158l93.61,13.55-77.03,8.66-16.58-22.2Z"/>
</svg>
